<svg
   id="svg469"
   version="1.1"
   width="512pt"
   viewBox="0 -82 512 511"
   height="512pt">
  <path
     id="path443"
     fill="#fed2a4"
     d="m512 173.628906c0 75-50.097656 139.800782-120 160.800782l-15-40.800782-15 46.800782c-34.800781 4.199218-70.902344 6.597656-106 6.597656-5.097656 0-9.902344-.300782-15-.597656l-15-52.800782-15 51.898438c-21-.898438-42-2.699219-63-5.398438-20.402344-2.402344-40.597656-8.699218-58-18l-15-58.5-15 38.097656c-36.597656-30.898437-60-77.097656-60-128.097656 0-63.898437 36.300781-120.300781 90-148.5l15 28.5 15-40.800781c8.699219-2.398437 18.699219-4.800781 28-5.699219 35.699219-4.800781 72-6.902344 108-6.601562 15 0 31 .300781 46 1.203125l15 21.898437 15-19.800781c11.101562.898437 21.898438 1.800781 33 3.300781 83.699219 10.199219 147 81.898438 147 166.5zm0 0" />
  <g
     id="g451"
     fill="#ffbd86">
    <path
       id="path445"
       d="m512 173.628906c0 75-50.097656 139.800782-120 160.800782l-15-40.800782-15 46.800782c-34.800781 4.199218-70.902344 6.597656-106 6.597656v-346.5c15 0 31 .300781 46 1.203125l15 21.898437 15-19.800781c11.101562.898437 21.898438 1.800781 33 3.300781 83.699219 10.199219 147 81.898438 147 166.5zm0 0" />
    <path
       id="path447"
       d="m166 233.628906c-8.289062 0-15-6.707031-15-15v-60c0-8.289062 6.710938-15 15-15s15 6.710938 15 15v60c0 8.292969-6.710938 15-15 15zm0 0" />
    <path
       id="path449"
       d="m226 143.628906c-8.289062 0-15-6.707031-15-15v-60c0-8.289062 6.710938-15 15-15s15 6.710938 15 15v60c0 8.292969-6.710938 15-15 15zm0 0" />
  </g>
  <path
     id="path453"
     fill="#f6a96c"
     d="m317 263.628906c-8.289062 0-15-6.707031-15-15v-60c0-8.289062 6.710938-15 15-15s15 6.710938 15 15v60c0 8.292969-6.710938 15-15 15zm0 0" />
  <path
     id="path455"
     fill="#f6a96c"
     d="m437 233.628906c-8.289062 0-15-6.707031-15-15v-60c0-8.289062 6.710938-15 15-15s15 6.710938 15 15v60c0 8.292969-6.710938 15-15 15zm0 0" />
  <path
     id="path457"
     fill="#f6a96c"
     d="m377 143.628906c-8.289062 0-15-6.707031-15-15v-60c0-8.289062 6.710938-15 15-15s15 6.710938 15 15v60c0 8.292969-6.710938 15-15 15zm0 0" />
  <path
     id="path459"
     fill="#ffbd86"
     d="m105 113.628906c8.289062 0 15-6.707031 15-15v-85.652344c-10.464844 3.125-20.53125 7.078126-30 12.058594v73.59375c0 8.292969 6.710938 15 15 15zm0 0" />
  <path
     id="path461"
     fill="#ffbd86"
     d="m226 263.628906c-8.289062 0-15 6.710938-15 15v66.941406c9.992188.515626 19.996094.757813 30 .929688v-67.871094c0-8.289062-6.710938-15-15-15zm0 0" />
  <path
     id="path463"
     fill="#ffbd86"
     d="m75 203.628906c-8.289062 0-15 6.710938-15 15v83.066406c9.25 7.816407 19.167969 14.824219 30 20.527344v-103.59375c0-8.289062-6.710938-15-15-15zm0 0" />
  <path
     id="path465"
     fill="#f6a96c"
     d="m377 263.628906c-8.289062 0-15 6.710938-15 15v61.898438c.964844-.117188 1.9375-.152344 2.898438-.273438 9.347656-1.164062 18.328124-3.351562 27.101562-5.972656v-55.652344c0-8.289062-6.710938-15-15-15zm0 0" />
  <path
     id="path467"
     fill="#f6a96c"
     d="m317 53.628906c8.289062 0 15-6.707031 15-15v-34.707031c-9.996094-.867187-19.980469-1.722656-30-2.242187v36.949218c0 8.292969 6.710938 15 15 15zm0 0" />
</svg>
