<svg
   id="svg780"
   version="1.1"
   width="512pt"
   viewBox="0 0 512 512"
   height="512pt">
  <path
     id="path756"
     fill="#b9dd39"
     d="m512 256c0-140.609375-115.390625-256-256-256l-30 25.3125v460.4375l30 26.25c140.609375 0 256-115.390625 256-256zm0 0" />
  <path
     id="path758"
     fill="#ff4949"
     d="m256 60c-8.289062 0-15 6.710938-15 15v361c0 8.289062 6.710938 15 15 15 107.519531 0 195-87.480469 195-195s-87.480469-196-195-196zm0 0" />
  <g
     id="g772"
     fill="#804231">
    <path
       id="path760"
       d="m391 256c0 8.285156-6.714844 15-15 15s-15-6.714844-15-15 6.714844-15 15-15 15 6.714844 15 15zm0 0" />
    <path
       id="path762"
       d="m331 135c0 8.285156-6.714844 15-15 15s-15-6.714844-15-15 6.714844-15 15-15 15 6.714844 15 15zm0 0" />
    <path
       id="path764"
       d="m331 256c0 8.285156-6.714844 15-15 15s-15-6.714844-15-15 6.714844-15 15-15 15 6.714844 15 15zm0 0" />
    <path
       id="path766"
       d="m361 316c0 8.285156-6.714844 15-15 15s-15-6.714844-15-15 6.714844-15 15-15 15 6.714844 15 15zm0 0" />
    <path
       id="path768"
       d="m361 196c0 8.285156-6.714844 15-15 15s-15-6.714844-15-15 6.714844-15 15-15 15 6.714844 15 15zm0 0" />
    <path
       id="path770"
       d="m331 376c0 8.285156-6.714844 15-15 15s-15-6.714844-15-15 6.714844-15 15-15 15 6.714844 15 15zm0 0" />
  </g>
  <path
     id="path774"
     fill="#93bf00"
     d="m89.214844 62.550781c-53.914063 46.789063-89.214844 116.625-89.214844 193.449219 0 64.570312 25.316406 123.433594 65.023438 168.40625l63.507812-66.996094 19.277344-268.113281zm0 0" />
  <path
     id="path776"
     fill="#81a713"
     d="m120.441406 39.402344c-11.003906 6.941406-21.4375 14.652344-31.226562 23.148437-.511719 8.933594-.5625 17.871094-1.40625 26.746094-2.859375 29.589844 18.457031 40.164063 33.996094 47.886719l2.917968 2.882812c-13.140625 13.140625-16.394531 34.136719-7.472656 51.980469 2.125 4.230469 2.210938 8.480469.265625 11.644531-2.871094 4.644532-10.125 7.308594-19.878906 7.308594-16.273438 0-30.761719 10.5625-37.808594 27.585938-4.644531 11.1875-15.730469 51.734374 36.238281 103.695312 4 3.996094 4.980469 10.078125 2.460938 15.128906l-33.503906 66.996094c6.988281 7.914062 14.449218 15.378906 22.355468 22.375 22.964844 20.320312 49.554688 37.507812 78.734375 48.550781-.027343-5.125 59.945313-41.230469 59.917969-46.222656l25.574219-448.886719c-48.160157.828125-93.011719 15.101563-131.164063 39.179688zm0 0" />
  <path
     id="path778"
     fill="#93bf00"
     d="m251.605469.222656-46.171875 57.710938c-6.078125 7.617187-9.433594 17.167968-9.433594 26.925781l.132812 19.890625c.308594 26.777344.308594 26.777344-12.714843 52.179688l-9.550781 19.792968c-10.300782 20.625-.601563 38.730469 7.191406 53.277344l3.953125 7.570312c3.238281 6.460938.601562 14.355469-5.859375 17.578126-12.539063 6.273437-21.019532 17.800781-23.261719 31.628906-2.253906 13.839844 2.15625 27.480468 12.070313 37.394531l18.105468 18.105469c4 4 4.980469 10.078125 2.460938 15.132812l-8.054688 15.761719c-9.597656 18.484375-13.566406 26.132813-14.460937 45.90625-.277344 6.066406.070312 71.125.097656 76.253906 9.753906 3.691407 19.769531 6.800781 30.046875 9.285157 19.234375 4.652343 39.203125 7.382812 59.84375 7.382812v-512c-1.484375 0-2.917969.199219-4.394531.222656zm0 0" />
</svg>
